PathFileType	4	(X/Y/Z)	D:/Dropbox/2017/2017-10 SOFAMEA OpenSim seminar/OpenSim workshop LucaClement/Hands-on_Paris2017_Luca/For Participants/3_Scaling/transformed_Static_for_scaling.trc	
DataRate	CameraRate	NumFrames	NumMarkers	Units	OrigDataRate	OrigDataStartFrame	OrigNumFrames	
120.00	120.00	7	47	mm	120.00	349	697	
Frame#	Time	Sternum			Neck			RShoulder			LShoulder			Xiphoid			Thoracic			RAsis			LAsis			RPsis			LPsis			LThighSuperior			LThighInferior			LThighLateral			LKneeLateral			LKneeMedial			LShankSuperior			LShankInferior			LShankLateral			LAnkleLateral			LAnkleMedial			RThighSuperior			RThighInferior			RThighLateral			RKneeLateral			RShankSuperior			RShankInferior			RShankLateral			RAnkleLateral			RankleMedial			RHeel			RToe			RMidfootMedial			RMidfootLateral			RHindfoot			RMidfootSuperior			RToeMedial			RToeLateral			LHeel			LToe			LMidfootMedial			LMidfootLateral			LHindfoot			LMidfootSuperior			LToeMedial			LToeLateral			RKneeMedial			Sacral			
		X1	Y1	Z1	X2	Y2	Z2	X3	Y3	Z3	X4	Y4	Z4	X5	Y5	Z5	X6	Y6	Z6	X7	Y7	Z7	X8	Y8	Z8	X9	Y9	Z9	X10	Y10	Z10	X11	Y11	Z11	X12	Y12	Z12	X13	Y13	Z13	X14	Y14	Z14	X15	Y15	Z15	X16	Y16	Z16	X17	Y17	Z17	X18	Y18	Z18	X19	Y19	Z19	X20	Y20	Z20	X21	Y21	Z21	X22	Y22	Z22	X23	Y23	Z23	X24	Y24	Z24	X25	Y25	Z25	X26	Y26	Z26	X27	Y27	Z27	X28	Y28	Z28	X29	Y29	Z29	X30	Y30	Z30	X31	Y31	Z31	X32	Y32	Z32	X33	Y33	Z33	X34	Y34	Z34	X35	Y35	Z35	X36	Y36	Z36	X37	Y37	Z37	X38	Y38	Z38	X39	Y39	Z39	X40	Y40	Z40	X41	Y41	Z41	X42	Y42	Z42	X43	Y43	Z43	X44	Y44	Z44	X45	Y45	Z45	X46	Y46	Z46	X47	Y47	Z47	

349	2.900	532.77618	1456.91272	-465.83481	377.89890	1572.22766	-455.27414	428.35120	1554.01233	-300.33176	404.84204	1554.52283	-601.12744	559.62219	1303.42432	-458.16516	289.94446	1351.72559	-451.91302	487.79440	1039.60071	-323.97720	500.89722	1045.35071	-604.71814	302.11417	1067.32776	-414.02869	300.98788	1066.98621	-516.39600	443.10834	873.94684	-659.52527	469.10144	643.07690	-641.04285	543.10974	747.71771	-587.98108	473.96988	558.13977	-643.66986	466.95709	565.10651	-501.65271	465.19748	405.86823	-661.58228	429.64975	204.93982	-643.46405	488.03253	294.46832	-602.66876	410.54312	124.42036	-643.61780	439.64374	125.31022	-558.17346	424.61142	846.45343	-287.61496	440.56680	610.35883	-311.03757	528.79620	764.54602	-340.52600	433.12863	545.38275	-310.02615	420.37469	448.64676	-304.31689	413.76987	194.39458	-336.00516	479.89618	318.68655	-368.13171	404.91797	119.98120	-339.43930	436.83060	137.44910	-425.83011	331.86945	79.33429	-394.79266	646.19226	62.92951	-351.63174	552.55334	49.06282	-414.17084	541.08582	43.68840	-295.50916	486.40244	43.65995	-309.83081	514.98102	110.36297	-365.36880	597.86755	50.25156	-403.96988	588.90564	48.17946	-301.50815	341.36685	83.26546	-590.90851	648.77051	74.03358	-642.77625	555.51788	50.74702	-578.48047	541.82556	47.16771	-694.86261	487.68036	46.47532	-680.05853	523.45569	112.64597	-625.67792	597.29388	51.59039	-586.83801	586.07813	56.91231	-690.14093	476.72458	543.26508	-446.37216	301.55103	1067.15698	-465.21234 
350	2.908	532.72412	1456.93176	-465.84241	377.83347	1572.19690	-455.34085	428.26242	1554.04614	-300.36835	404.69479	1554.57520	-601.11713	559.59491	1303.44128	-458.17554	289.89499	1351.69690	-451.91174	487.76410	1039.60730	-324.00015	500.90717	1045.34302	-604.70258	302.10699	1067.30579	-414.10184	300.95251	1066.97144	-516.40125	443.15192	873.95624	-659.51416	469.17712	643.08759	-641.08624	543.11798	747.71643	-587.95398	473.95422	558.12366	-643.60687	466.94882	565.12646	-501.58301	465.20554	405.84750	-661.56720	429.63159	204.91350	-643.44769	488.03989	294.46719	-602.66302	410.65933	124.40497	-643.65039	439.64594	125.33821	-558.13861	424.57065	846.40576	-287.62967	440.51447	610.35498	-311.02274	528.77960	764.54510	-340.48004	433.11151	545.38013	-310.01843	420.38821	448.62543	-304.31168	413.75558	194.40846	-335.97482	479.88385	318.67636	-368.09869	404.91476	119.96603	-339.45389	436.82370	137.43713	-425.83493	331.92697	79.62547	-394.49078	646.19183	62.93377	-351.62866	552.54236	49.05789	-414.18640	541.08643	43.40002	-295.63818	486.43533	43.69907	-309.79578	514.45917	110.81858	-364.55237	597.87408	50.25306	-403.94431	588.82977	48.22537	-301.61124	341.35083	83.34398	-591.02319	648.77948	74.03020	-642.76477	555.51227	50.76780	-578.46698	541.80804	47.16343	-694.86823	487.69147	46.49386	-680.10046	523.46429	112.69833	-625.59412	597.30786	51.56718	-586.84619	586.09186	56.91407	-690.14252	476.72208	543.26074	-446.38037	301.52975	1067.13867	-465.25153 
351	2.917	532.70636	1456.94995	-465.87207	377.74176	1572.20593	-455.42291	428.21619	1554.05957	-300.42920	404.73206	1554.49304	-601.22437	559.58057	1303.43640	-458.22592	289.86319	1351.69336	-451.94019	487.72916	1039.64441	-323.96194	500.90793	1045.33362	-604.69055	302.05960	1067.30713	-414.05936	300.95721	1066.94421	-516.40955	443.15677	873.96240	-659.51428	469.25662	643.09454	-641.09094	543.12024	747.72009	-587.94598	474.03308	558.11078	-643.61890	467.06021	565.10760	-501.58871	465.26074	405.87482	-661.55927	429.67444	204.94661	-643.45691	488.05441	294.47903	-602.66351	410.70700	124.40147	-643.67029	439.64252	125.29850	-558.14484	424.53738	846.41364	-287.60046	440.50735	610.35583	-310.99823	528.78558	764.53223	-340.46570	433.12433	545.37952	-309.99716	420.37222	448.62708	-304.29370	413.77551	194.39548	-335.98065	479.90436	318.65921	-368.12177	404.91986	119.99516	-339.44077	436.85419	137.44353	-425.80576	331.97925	79.50664	-394.41751	646.19263	62.92520	-351.64395	552.55341	49.04958	-414.16772	541.09448	43.66925	-295.51108	486.40677	43.63747	-309.82877	514.37427	110.91235	-364.44574	597.88300	50.24054	-403.97519	588.78796	48.49345	-301.07928	341.36908	83.34185	-591.04395	648.78180	74.02123	-642.75299	555.51971	50.74414	-578.48242	541.82684	47.17179	-694.85095	487.72021	46.50686	-680.06390	523.47290	112.71252	-625.58124	597.27570	51.54678	-586.81030	586.09924	56.92348	-690.11212	476.74667	543.27283	-446.34424	301.50842	1067.12573	-465.23444 
352	2.925	532.65869	1456.89868	-466.02399	377.66119	1572.21912	-455.46136	428.15070	1554.08008	-300.48541	404.67844	1554.47034	-601.30743	559.56927	1303.44897	-458.19757	289.80795	1351.67102	-451.97144	487.71661	1039.67834	-323.97009	500.91843	1045.33167	-604.65344	302.04703	1067.28064	-414.04272	300.95862	1066.94360	-516.41003	443.16092	873.95667	-659.48767	469.26672	643.08752	-641.07269	543.22772	747.74860	-587.90198	474.09097	558.14697	-643.65070	467.13455	565.07404	-501.61401	465.27362	405.84720	-661.52545	429.68054	204.95259	-643.46301	488.08395	294.46698	-602.65375	410.72787	124.39951	-643.67645	439.64819	125.31146	-558.16400	424.55161	846.44678	-287.55109	440.38516	610.34924	-311.03201	528.75134	764.55676	-340.42838	433.11020	545.34436	-310.00134	420.36844	448.62326	-304.29050	413.75372	194.39638	-335.97821	479.90338	318.66757	-368.11829	404.89661	119.98001	-339.44247	436.82919	137.44623	-425.82437	331.93488	79.62891	-394.47153	646.19769	62.92918	-351.63800	552.92163	49.44362	-414.73431	541.10797	43.49918	-295.57770	486.41364	43.64316	-309.82990	514.44885	110.89698	-364.51132	597.87115	50.23737	-403.95071	588.89899	48.20103	-301.47211	341.41962	83.21400	-590.91455	648.78412	74.00919	-642.74463	555.49884	50.77303	-578.44061	541.82825	47.17227	-694.85040	487.72870	46.50571	-680.09363	523.47437	112.71709	-625.57367	597.30530	51.56356	-586.87408	586.10284	56.93894	-690.13647	476.71921	543.27106	-446.31802	301.50281	1067.11206	-465.22638 
353	2.933	532.59998	1456.96643	-466.02094	377.61746	1572.25061	-455.47333	428.07278	1554.10303	-300.51620	404.61407	1554.44275	-601.37317	559.51587	1303.43213	-458.17560	289.75757	1351.66589	-452.08185	487.71698	1039.69360	-323.99445	500.94089	1045.33875	-604.65179	302.01456	1067.27673	-414.06833	300.93994	1066.92627	-516.41260	443.10822	874.03394	-659.18060	469.30710	643.09344	-641.04315	543.21606	747.71667	-587.83746	474.12527	558.11658	-643.64429	467.07751	565.09515	-501.57700	465.32047	405.86966	-661.55945	429.75534	205.07951	-643.33319	488.09018	294.46527	-602.65436	410.72760	124.39941	-643.67615	439.64667	125.33617	-558.14905	424.52448	846.42120	-287.55988	440.35181	610.33295	-311.05103	528.73468	764.54541	-340.40335	433.12442	545.37866	-309.99738	420.36673	448.62863	-304.29047	413.76468	194.42511	-335.93494	479.88620	318.67865	-368.08258	404.91730	119.98141	-339.43918	436.82443	137.44627	-425.82639	331.81876	79.43892	-394.83926	646.19611	62.92778	-351.65884	552.62830	49.13414	-414.27332	541.10413	43.46292	-295.61902	486.44415	43.70641	-309.83496	514.43732	110.90495	-364.49097	597.87042	50.23718	-403.94858	588.90186	48.19635	-301.50824	341.46399	83.22773	-591.13348	648.77765	74.01312	-642.74445	555.51233	50.76770	-578.46423	541.81140	47.16985	-694.84491	487.74551	46.52803	-680.10455	523.47614	112.70111	-625.62054	597.29980	51.54906	-586.84515	586.10797	56.93857	-690.13684	476.72498	543.27686	-446.31250	301.47723	1067.10156	-465.24048 
354	2.942	532.56250	1456.95276	-466.15405	377.61743	1572.15247	-455.66638	428.01428	1554.13196	-300.60706	404.55392	1554.41528	-601.43152	559.56384	1303.54126	-458.25659	289.73050	1351.64819	-451.96875	487.67596	1039.73083	-323.99548	500.96313	1045.33691	-604.64008	302.02060	1067.25610	-414.07288	300.93326	1066.91260	-516.39563	443.20227	873.88562	-659.44501	469.40051	643.08136	-641.01575	543.13519	747.68890	-587.82440	473.86401	558.08795	-643.59418	467.02298	565.07861	-501.53787	465.34171	405.83429	-661.50427	429.79037	205.07080	-643.32422	488.09677	294.45953	-602.62573	410.80469	124.45338	-643.67926	439.63953	125.32087	-558.14685	424.50748	846.42596	-287.54019	440.36069	610.34210	-311.02969	528.73468	764.54498	-340.40335	433.10818	545.34338	-309.96863	420.36188	448.62598	-304.26767	413.77203	194.39200	-335.98718	479.89014	318.68442	-368.08459	404.91550	119.96922	-339.45001	436.82520	137.44604	-425.82578	331.94308	79.63401	-394.49457	646.20190	62.93062	-351.65439	552.57251	49.02422	-414.14929	541.11945	43.44305	-295.64966	486.47171	43.69839	-309.83871	514.43488	110.88847	-364.49063	597.87738	50.22852	-403.96161	588.74585	48.48961	-301.02484	341.44769	83.18401	-590.94983	648.78650	74.01772	-642.79034	555.52026	50.78017	-578.47083	541.84442	47.17273	-694.85956	487.78641	46.50837	-680.05719	523.48517	112.71657	-625.60693	597.31561	51.53204	-586.90857	586.12628	56.93391	-690.14069	476.72974	543.27490	-446.31161	301.47693	1067.08435	-465.23425 
355	2.950	532.52161	1456.96631	-466.17847	377.56372	1572.22778	-455.86545	427.91959	1554.16174	-300.66397	404.53354	1554.34302	-601.51288	559.55444	1303.52466	-458.25751	289.66034	1351.62000	-451.93829	487.67862	1039.76965	-323.96320	500.99448	1045.34912	-604.61554	301.99167	1067.26611	-414.04187	300.98315	1066.89001	-516.41907	443.23376	873.88190	-659.45288	469.44415	643.07825	-641.03540	543.26239	747.71741	-587.79150	474.16205	558.11444	-643.61115	467.07111	565.07672	-501.50720	465.36334	405.83469	-661.49390	429.56366	204.96831	-643.41833	488.10669	294.46420	-602.61481	410.62576	124.41789	-643.61920	439.64825	125.33056	-558.15967	424.49588	846.40186	-287.53928	440.36472	610.33783	-311.01178	528.71844	764.55029	-340.36331	433.12091	545.34662	-309.95560	420.36343	448.62662	-304.28268	413.78537	194.39447	-335.97809	479.91550	318.70206	-368.04260	404.91528	119.96857	-339.45087	436.82565	137.44608	-425.82578	331.94577	79.63516	-394.46524	646.20898	62.93634	-351.64380	552.57465	49.03616	-414.18985	541.05884	43.56775	-295.58505	486.41467	43.62668	-309.83914	515.01569	110.30838	-365.45898	597.89594	50.23771	-403.97461	588.89838	48.20377	-301.47003	341.47394	83.16493	-590.94080	648.78821	74.03999	-642.78900	555.52448	50.75779	-578.46405	541.86670	47.18004	-694.85925	487.80527	46.50745	-680.05469	523.49548	112.72205	-625.59637	597.29694	51.55198	-586.83734	586.17120	56.91727	-690.15808	476.73947	543.26514	-446.29529	301.48743	1067.07813	-465.23047 
